<svg xmlns="http://www.w3.org/2000/svg" xmlns:xlink="http://www.w3.org/1999/xlink" version="1.1" id="Layer_1" x="0px" y="0px" enable-background="new 0 0 1024 1024" xml:space="preserve" viewBox="341.25 250.69 403.48 519.98">
<path fill="#000000" opacity="1.000000" stroke="none" d=" M488.414581,707.286621   C513.513977,715.234009 527.342896,733.590027 536.253113,756.610718   C537.625549,760.156677 538.363831,763.954590 539.288513,767.662598   C539.515747,768.573853 539.322388,769.589966 539.322388,770.437866   C538.350708,770.938599 537.795837,770.542725 537.434631,769.979126   C526.724792,753.268616 510.085114,746.176636 491.707275,742.364197   C474.102905,738.712219 456.477081,735.576904 440.115662,727.423950   C415.519226,715.167542 395.259613,697.953552 380.209473,675.100830   C370.805664,660.821777 360.342133,647.107910 353.854919,631.008606   C346.948059,613.867798 342.885834,596.152039 341.701782,577.726013   C338.035339,520.669556 357.009552,470.432373 387.958435,423.788391   C395.059692,413.085876 402.827759,402.885498 411.173645,393.123230   C411.919525,392.250732 412.817841,391.444092 412.895294,389.171875   C405.034546,387.735748 397.106689,390.017059 389.276306,389.782593   C387.884216,387.816406 388.758636,386.083160 389.652740,384.546753   C391.071259,382.109283 392.617310,379.721527 394.338745,377.489655   C398.566742,372.007965 404.452881,368.621002 406.447510,360.416229   C408.573425,351.671234 418.350891,347.443909 426.586975,343.660065   C444.051880,335.636353 462.708984,332.408661 481.679779,330.675018   C490.454742,329.873108 498.919617,328.913666 506.976044,324.271179   C515.584412,319.310638 525.085510,315.869965 534.292786,311.993622   C537.574219,310.612091 538.340576,309.179047 536.269226,306.057831   C533.264526,301.530151 532.020020,296.354462 531.627930,290.952148   C531.006592,282.391296 528.450500,274.358398 525.287720,266.412720   C521.190125,256.118347 525.092224,250.338867 536.217285,250.703568   C564.644165,251.635452 586.416077,264.898224 601.983704,288.217346   C605.446777,293.404755 608.835876,295.055695 614.812683,294.890900   C646.009521,294.030823 675.377686,302.368042 704.125000,313.500458   C705.967773,314.214081 707.728149,315.226288 710.222473,315.203796   C709.595947,308.477142 704.668762,304.164368 701.423157,299.097839   C702.776978,297.551910 703.763794,298.641296 704.609497,299.215790   C711.736816,304.057098 718.054871,309.677612 721.282471,317.953735   C722.239685,320.408203 724.072693,321.529388 726.259277,322.488129   C744.388672,330.437195 749.321899,342.126770 740.411377,359.984955   C735.698975,369.429504 731.586609,378.217926 731.694153,389.257965   C731.779236,397.986115 726.979797,405.990295 722.034668,413.305023   C721.584412,413.188049 721.134094,413.071106 720.683838,412.954132   C721.869690,408.366058 723.324341,403.826691 724.167664,399.176483   C725.054321,394.287598 725.310364,389.295288 723.296387,383.681549   C711.252258,393.751099 699.528381,403.561096 684.921448,411.502960   C686.016174,407.697296 688.197937,406.923981 689.805298,405.674500   C704.547302,394.214600 717.259521,380.937225 726.692932,364.705078   C727.529175,363.266174 728.348816,361.809174 729.051819,360.302521   C736.566101,344.197479 733.173462,334.688019 717.134521,327.284637   C702.750244,320.645050 687.482910,317.473114 671.783020,316.133575   C670.673523,316.038940 669.462524,315.688446 668.294922,316.859192   C668.493408,317.349152 668.601807,318.031616 668.980835,318.490479   C675.130859,325.934937 673.020142,333.699036 666.060669,338.476898   C650.840210,348.926178 634.423706,356.982361 615.369690,357.295319   C607.926880,357.417572 601.878418,354.047760 598.963257,347.125336   C594.977417,337.660461 590.868225,328.046204 593.688171,317.270111   C594.981934,312.326111 597.730591,308.219208 601.118958,303.822052   C598.006836,302.733551 595.768066,304.351166 593.504333,305.284637   C585.521973,308.576202 579.082581,313.494446 576.046997,322.014526   C574.543457,326.234528 571.625854,329.265656 567.911377,331.822540   C553.378296,341.826538 553.695984,357.081207 568.503235,366.586212   C571.165588,368.295227 573.854980,369.962250 576.509399,371.683472   C583.402893,376.153564 585.261719,382.640411 583.908508,390.372864   C583.593567,392.172668 583.137756,393.947327 582.771545,395.738647   C581.388733,402.501831 584.117615,407.869415 590.711548,409.789276   C596.037537,411.339935 599.604370,414.230591 602.412842,419.028381   C607.072876,426.989105 616.681824,431.591431 625.408691,430.315002   C613.375366,419.769135 609.516418,406.945892 613.493164,391.974609   C616.056763,382.323395 619.956909,373.346924 627.594055,366.165985   C629.131958,368.524536 627.523926,369.778168 626.925659,371.187256   C622.446106,381.738251 620.584900,392.608673 623.600952,403.846344   C627.724365,419.209778 641.072571,426.934784 658.702942,424.482330   C659.776672,424.332977 660.883545,423.431976 661.970154,424.648560   C661.900513,426.805695 659.911560,426.996094 658.580139,427.764313   C644.814209,435.707031 630.124878,441.545044 615.134583,446.677979   C607.755188,449.204773 607.669312,449.175781 608.490295,456.957062   C610.917114,479.960419 606.053833,501.329559 594.033325,521.033630   C588.711426,529.757202 582.242432,537.568665 574.159485,543.940674   C571.918457,545.707275 569.513062,547.185303 566.813293,548.124634   C561.046143,550.131348 556.593323,548.089417 554.589905,542.229858   C553.126526,537.949829 552.647339,533.442688 553.077209,528.927856   C553.789001,521.453186 552.896362,514.169983 549.445190,507.548706   C543.048096,495.275299 544.006653,483.905182 552.510681,473.071075   C553.109009,472.308777 553.830994,471.506744 553.375610,470.368347   C552.687256,469.250336 551.704224,469.499176 550.735840,469.827576   C522.457642,479.416931 494.724670,490.235352 469.239838,506.097900   C466.836884,507.593567 464.561829,509.297607 462.137726,510.755859   C458.852936,512.731873 457.654297,515.465149 457.253906,519.352478   C455.466858,536.702454 449.433441,552.313416 437.040253,565.023743   C435.767181,566.329407 434.358459,567.548767 432.851929,568.571289   C429.894501,570.578552 428.135071,570.261963 427.625519,566.146912   C426.952972,560.715454 425.751953,555.349121 424.769745,549.956360   C424.531158,548.646423 424.341705,547.298035 422.845703,546.537048   C420.723297,546.344788 419.734222,548.083557 418.655548,549.461365   C403.835083,568.391968 393.042145,589.166809 390.015747,613.360718   C385.753845,647.431641 407.326660,666.696411 440.634766,663.342651   C453.222229,662.075195 464.651917,656.716614 476.804474,653.961487   C504.548584,647.671631 528.430420,655.135986 549.163696,674.030151   C549.891052,674.692993 550.706604,675.318298 550.776184,676.496704   C550.257324,677.783936 549.126648,677.416077 548.254578,677.164062   C531.570374,672.340637 516.051025,675.487732 501.096008,683.627014   C479.180176,695.554626 478.739899,695.586060 453.512421,697.845398   C465.091309,703.042725 476.595215,704.964111 488.414581,707.286621  M437.798523,476.767334   C438.380646,480.014984 436.560333,482.504669 435.214264,485.171753   C433.429535,488.707947 434.618317,491.734589 437.382141,494.086700   C439.317474,495.733734 441.675934,495.930786 443.795837,494.169434   C446.725250,491.735565 447.337280,488.744476 445.935242,485.195679   C445.297394,483.581207 443.322449,482.466522 444.100861,480.036469   C444.793793,479.914948 445.582703,479.769989 446.373932,479.638824   C462.497345,476.966339 474.053650,460.069519 470.317474,444.244781   C468.555939,436.783661 468.175079,429.554077 470.574249,422.129730   C473.181366,414.061676 477.638062,407.103821 482.407043,400.250275   C483.313324,398.947845 485.477844,397.834381 483.698792,395.369293   C474.231079,399.134857 465.469940,404.162170 457.049530,409.803406   C406.516724,443.657898 373.105347,488.911499 363.796265,550.152893   C361.781677,563.406189 361.922882,576.644104 364.493835,590.684143   C364.972839,586.870728 365.365784,583.914734 365.712830,580.953369   C369.487244,548.745300 380.496674,519.257507 399.034302,492.630920   C405.235291,483.724121 412.052551,475.304260 420.155426,468.028748   C426.585815,462.254974 432.422668,463.462677 436.132263,471.257935   C436.838348,472.741669 437.176483,474.400482 437.798523,476.767334  z"/>
<path fill="#000000" opacity="1.000000" stroke="none" d=" M688.905029,361.096466   C692.714600,365.493317 693.415527,370.072327 690.590271,374.721191   C688.159363,378.721222 684.287537,380.726776 679.566589,380.012390   C674.655579,379.269287 671.518188,376.227234 670.352173,371.355835   C669.270630,366.837067 670.734131,363.099121 674.359497,360.333649   C678.777039,356.963898 683.023682,357.197327 688.905029,361.096466  z"/>
</svg>